<svg width="512" height="512" viewBox="0 0 512 512" fill="none" xmlns="http://www.w3.org/2000/svg">
<g clip-path="url(#clip0_275_35)">
<path d="M32 108.71L32 231.64C31.9972 235.461 33.5072 239.128 36.2 241.84L281.9 487.6C287.306 492.98 294.623 496 302.25 496C309.877 496 317.194 492.98 322.6 487.6L439.6 370.6C444.981 365.192 448.001 357.874 448.001 350.245C448.001 342.616 444.981 335.298 439.6 329.89L194 84.2C191.289 81.5072 187.621 79.9971 183.8 79.9999H60.8C57.0204 79.9815 53.2744 80.7108 49.7778 82.146C46.2811 83.5811 43.1029 85.6937 40.4261 88.3622C37.7492 91.0307 35.6267 94.2023 34.1806 97.6944C32.7345 101.187 31.9934 104.93 32 108.71V108.71Z" stroke="#1AA090" stroke-width="32" stroke-linecap="round" stroke-linejoin="round"/>
<path d="M144 160C144 166.329 142.123 172.516 138.607 177.778C135.091 183.041 130.093 187.142 124.246 189.564C118.399 191.986 111.965 192.62 105.757 191.385C99.5497 190.15 93.8479 187.103 89.3726 182.627C84.8973 178.152 81.8496 172.45 80.6149 166.243C79.3802 160.035 80.0139 153.601 82.4359 147.754C84.8579 141.907 88.9594 136.909 94.2218 133.393C99.4841 129.877 105.671 128 112 128C120.487 128 128.626 131.371 134.627 137.373C140.629 143.374 144 151.513 144 160Z" fill="#1AA090"/>
<path d="M480 282L218 20C216.686 18.6974 215.124 17.6721 213.406 16.985C211.688 16.2978 209.85 15.9629 208 16H80" stroke="#1AA090" stroke-width="32" stroke-linecap="round" stroke-linejoin="round"/>
</g>
<defs>
<clipPath id="clip0_275_35">
<rect width="512" height="512" fill="white" transform="translate(0 512) rotate(-90)"/>
</clipPath>
</defs>
</svg>
