<svg width="275" height="275" viewBox="0 0 275 275" fill="none" xmlns="http://www.w3.org/2000/svg">
<path d="M230.828 94.7604L248.738 76.8511L232.536 60.649L212.965 80.2084C200.933 72.9896 186.908 68.75 171.875 68.75C127.657 68.75 91.6667 104.729 91.6667 148.958C91.6667 193.188 127.657 229.167 171.875 229.167C216.093 229.167 252.083 193.188 252.083 148.958C252.074 128.861 244.484 109.506 230.828 94.7604ZM171.875 206.25C140.284 206.25 114.583 180.549 114.583 148.958C114.583 117.368 140.284 91.6667 171.875 91.6667C203.466 91.6667 229.167 117.368 229.167 148.958C229.167 180.549 203.466 206.25 171.875 206.25Z" fill="#1AA090"/>
<path d="M160.417 114.583H183.333V160.417H160.417V114.583ZM148.958 34.375H194.792V57.2917H148.958V34.375ZM34.3751 91.6667H80.2084V114.583H34.3751V91.6667ZM34.3751 183.333H80.2084V206.25H34.3751V183.333ZM22.9167 137.5H68.6355V160.417H22.9167V137.5Z" fill="#1AA090"/>
</svg>
